<svg xmlns="http://www.w3.org/2000/svg" xml:space="preserve" id="Layer_1" x="0" y="0" style="enable-background:new 0 0 768 192" version="1.1" viewBox="0 0 768 192"><style>.st0{fill:#2979ff}.st4{fill:#434343}.st5{fill:#666}</style><path d="M85 39.2h13v68.7H85zM113.7 107.9V39.2h15.1l27.7 46.1h.8l-.8-13.2V39.2h12.9v68.7h-13.6l-29.3-48.6h-.8l.8 13.2v35.4zM229.5 49.5c-2.1-3.2-4.9-5.8-8.4-7.6s-7.5-2.7-11.9-2.7H185V108h13V82.6h11.2c4.4 0 8.4-.9 11.9-2.7 3.5-1.9 6.3-4.4 8.4-7.7 2.1-3.3 3.1-7.1 3.1-11.4 0-4.3-1-8-3.1-11.3m-10.7 16.1c-.8 1.4-2 2.6-3.5 3.5-1.6.9-3.5 1.3-5.7 1.3H198V51.5h11.6c2.3 0 4.2.4 5.7 1.3 1.6.9 2.7 2.1 3.5 3.5.8 1.4 1.2 2.9 1.2 4.6s-.4 3.3-1.2 4.7" class="st0"/><path d="M358 54.1h115.2v43.2H358z" style="fill:#0cce6b"/><path d="M400.1 80.7c-.7 0-1.3-.1-1.9-.4a4.57 4.57 0 0 1-2.7-2.6c-.3-.6-.4-1.3-.4-2s.1-1.4.4-2 .6-1.1 1.1-1.6 1-.8 1.6-1 1.2-.4 1.9-.4 1.4.1 2 .4c.6.2 1.1.6 1.6 1.1l-1 1c-.2-.2-.4-.4-.7-.6-.3-.2-.5-.3-.9-.4-.3-.1-.6-.1-1-.1-.5 0-.9.1-1.3.3-.4.2-.8.4-1.1.7a3.34 3.34 0 0 0-1.1 2.6c0 .6.1 1 .3 1.5.2.4.5.8.8 1.1s.7.6 1.1.7c.4.2.9.2 1.3.2s.8-.1 1.2-.2c.4-.1.7-.3 1-.5.3-.2.5-.5.7-.8s.3-.7.3-1.1H400v-1.3h4.6v.8c0 .7-.1 1.3-.4 1.9-.2.6-.6 1-1 1.5-.4.4-.9.7-1.5.9-.3.2-.9.3-1.6.3M415.2 73.8c-.2-.6-.5-1.1-1-1.6s-1-.9-1.6-1.1c-.6-.3-1.3-.4-2-.4s-1.4.1-2 .4c-.6.3-1.2.6-1.6 1.1s-.8 1-1 1.6c-.3.6-.4 1.2-.4 1.9s.2 1.3.4 1.9c.2.6.6 1.1 1 1.6.5.5 1 .8 1.6 1.1s1.3.4 2 .4c.8 0 1.4-.1 2-.4.6-.3 1.2-.6 1.6-1.1s.8-1 1-1.6c.3-.6.4-1.2.4-1.9s-.2-1.3-.4-1.9m-1.6 3.7c-.3.6-.7 1-1.2 1.3-.6.3-1.2.5-1.8.5-.6 0-1.2-.1-1.8-.5-.5-.3-.9-.7-1.2-1.3-.3-.6-.5-1.2-.5-1.9s.2-1.3.5-1.9c.3-.6.7-1 1.2-1.3a3.45 3.45 0 0 1 3.6 0c.5.3.9.7 1.2 1.3.3.6.5 1.2.5 1.9s-.2 1.3-.5 1.9M426.2 73.8c-.2-.6-.5-1.1-1-1.6s-1-.9-1.6-1.1c-.6-.3-1.3-.4-2-.4s-1.4.1-2 .4c-.6.3-1.2.6-1.6 1.1s-.8 1-1 1.6c-.3.6-.4 1.2-.4 1.9s.2 1.3.4 1.9c.2.6.6 1.1 1 1.6.5.5 1 .8 1.6 1.1s1.3.4 2 .4 1.4-.1 2-.4c.6-.3 1.2-.6 1.6-1.1s.8-1 1-1.6c.3-.6.4-1.2.4-1.9s-.2-1.3-.4-1.9m-1.6 3.7c-.3.6-.7 1-1.2 1.3-.6.3-1.2.5-1.8.5-.6 0-1.2-.1-1.8-.5-.5-.3-.9-.7-1.2-1.3-.3-.6-.5-1.2-.5-1.9s.2-1.3.5-1.9c.3-.6.7-1 1.2-1.3a3.45 3.45 0 0 1 3.6 0c.5.3.9.7 1.2 1.3.3.6.5 1.2.5 1.9s-.2 1.3-.5 1.9M435.5 73.3c-.4-.7-1-1.3-1.7-1.7-.7-.4-1.6-.6-2.6-.6h-3v9.6h3c1 0 1.9-.2 2.6-.6s1.3-1 1.7-1.7c.4-.7.6-1.6.6-2.5 0-1-.2-1.8-.6-2.5m-1.3 4.2c-.3.5-.7.9-1.2 1.2s-1.1.4-1.8.4h-1.5v-6.8h1.5c.7 0 1.3.1 1.8.4s.9.7 1.2 1.2.4 1.1.4 1.8-.1 1.3-.4 1.8"/><path d="M473.2 54.1H598v43.2H473.2z" style="fill-rule:evenodd;clip-rule:evenodd;fill:#ffa400"/><path d="M515.6 72.5V63h1.7l4.3 7h.1l-.1-1.8V63h1.5v9.5h-1.5l-4.5-7.4h-.1l.1 1.8v5.5h-1.5zM531.1 64.4V63h-5.8v9.6h5.8v-1.4h-4.3v-2.8h3.8V67h-3.8v-2.6zM538.7 64.4V63h-5.8v9.6h5.8v-1.4h-4.3v-2.8h3.9V67h-3.9v-2.6zM547.8 65.3c-.4-.7-1-1.3-1.7-1.7s-1.6-.6-2.6-.6h-3v9.6h3c1 0 1.9-.2 2.6-.6.7-.4 1.3-1 1.7-1.7.4-.7.6-1.6.6-2.5 0-1-.2-1.8-.6-2.5m-1.3 4.2c-.3.5-.7.9-1.2 1.2s-1.1.4-1.8.4H542v-6.8h1.5c.7 0 1.3.1 1.8.4.5.3.9.7 1.2 1.2s.4 1.1.4 1.8-.1 1.3-.4 1.8M552.9 72.7c-.5 0-1-.1-1.5-.3-.5-.2-.9-.5-1.2-.9-.3-.4-.6-.9-.8-1.5l1.4-.6c.1.5.4.9.8 1.3.4.3.8.5 1.3.5.3 0 .6-.1.8-.2.3-.1.5-.3.6-.5.2-.2.2-.5.2-.8 0-.3-.1-.5-.2-.7-.1-.2-.3-.4-.6-.5-.3-.2-.7-.3-1.1-.5l-.6-.2a3 3 0 0 1-.8-.4c-.3-.1-.5-.3-.7-.5s-.4-.5-.5-.7c-.1-.3-.2-.6-.2-1 0-.5.1-.9.4-1.3.2-.4.6-.7 1-.9.4-.2 1-.4 1.6-.4s1.1.1 1.5.3c.4.2.7.5 1 .8.2.3.4.6.5.9l-1.3.6c-.1-.2-.2-.4-.3-.5-.1-.2-.3-.3-.5-.4s-.5-.2-.8-.2-.5.1-.8.2c-.2.1-.4.2-.6.4-.1.2-.2.4-.2.6 0 .3.1.6.4.8s.7.4 1.2.6l.6.2c.3.1.6.2.9.4.3.1.6.3.8.6.2.2.4.5.6.8.1.3.2.7.2 1.2s-.1.9-.3 1.3c-.2.4-.4.6-.8.9-.3.2-.7.4-1 .5-.3 0-.7.1-1 .1M489.2 79h1.5v9.5h-1.5zM492.8 88.5V79h2l2.8 7.3h.1l2.8-7.3h2v9.5h-1.4v-5.4l.1-1.7h-.1l-2.8 7.1h-1.2l-2.8-7.1h-.1l.1 1.7v5.4zM510.5 80.4c-.2-.4-.6-.8-1.1-1-.5-.3-1-.4-1.6-.4h-3.3v9.5h1.5v-3.7h1.8c.6 0 1.1-.2 1.6-.4.4-.2.8-.6 1.1-1 .3-.4.4-.9.4-1.5s-.1-1.1-.4-1.5m-1.3 2.2c-.1.3-.3.5-.5.6s-.5.2-.9.2H506v-3.1h1.8c.4 0 .7 0 .9.2s.4.4.5.6c.1.2.2.4.2.7 0 .3-.1.6-.2.8M516.7 84.6c.1 0 .2 0 .3-.1.4-.1.7-.3 1-.6.3-.2.6-.6.7-.9.1-.3.2-.7.2-1.1 0-.6-.1-1.1-.4-1.5s-.6-.8-1.1-1c-.5-.3-1-.4-1.6-.4h-3.3v9.5h1.4v-3.8h1.2c.6.9 2.6 3.8 2.6 3.8h1.7v-.1zm-2.8-4.3h1.9c.4 0 .7.1.9.2.2.2.4.4.5.6.1.2.2.4.2.7s0 .6-.2.8c-.2.3-.4.5-.6.6-.2.1-.5.2-.8.2h-1.9zM529.6 81.8c-.2-.6-.5-1.1-1-1.6s-1-.9-1.6-1.1c-.6-.3-1.3-.4-2-.4s-1.4.1-2 .4c-.6.3-1.2.6-1.6 1.1s-.8 1-1 1.6c-.3.6-.4 1.2-.4 1.9s.2 1.3.4 1.9.6 1.1 1 1.6c.5.5 1 .8 1.6 1.1.6.3 1.3.4 2 .4.8 0 1.4-.1 2-.4.6-.3 1.2-.6 1.6-1.1s.8-1 1-1.6c.3-.6.4-1.2.4-1.9s-.2-1.3-.4-1.9m-1.6 3.7c-.3.6-.7 1-1.2 1.3-.6.3-1.2.5-1.8.5s-1.2-.1-1.8-.5c-.5-.3-.9-.8-1.2-1.3a3.83 3.83 0 0 1 0-3.8c.3-.6.7-1 1.2-1.3a3.45 3.45 0 0 1 3.6 0c.5.3.9.8 1.2 1.3a3.83 3.83 0 0 1 0 3.8M533.8 88.5l-3.4-9.5h1.6l2.2 6.3.3 1.1h.1l.4-1.1 2.2-6.3h1.6l-3.5 9.5zM545.8 80.4V79H540v9.6h5.8v-1.4h-4.3v-2.8h3.9V83h-3.9v-2.6zM547.6 88.5V79h2l2.8 7.3h.1l2.8-7.3h2v9.5h-1.5v-5.4l.1-1.7h-.1l-2.8 7.1h-1.2l-2.8-7.1h-.1l.1 1.7v5.4zM565.2 80.4V79h-5.8v9.6h5.8v-1.4h-4.3v-2.8h3.9V83h-3.9v-2.6zM567 88.5V79h1.7l4.3 7h.1l-.1-1.8V79h1.5v9.5H573l-4.5-7.4h-.1l.1 1.8v5.5H567zM582.8 78.9H576v1.4h2.7v8.2h1.5v-8.2h2.6z"/><path d="M598 54.1h115.2v43.2H598z" style="fill-rule:evenodd;clip-rule:evenodd;fill:#ff4e42"/><path d="M643.7 72.4c-.2-.4-.6-.8-1.1-1-.5-.3-1-.4-1.6-.4h-3.3v9.5h1.5v-3.7h1.8c.6 0 1.1-.2 1.6-.4.4-.2.8-.6 1.1-1 .3-.4.4-.9.4-1.5s-.1-1.1-.4-1.5m-1.3 2.2c-.1.3-.3.5-.5.6s-.5.2-.9.2h-1.8v-3.1h1.8c.4 0 .7 0 .9.2s.4.4.5.6c.1.2.2.4.2.7 0 .3-.1.6-.2.8M654.6 73.8c-.2-.6-.5-1.1-1-1.6s-1-.9-1.6-1.1c-.6-.3-1.3-.4-2-.4s-1.4.1-2 .4c-.6.3-1.2.6-1.6 1.1s-.8 1-1 1.6c-.3.6-.4 1.2-.4 1.9s.2 1.3.4 1.9.6 1.1 1 1.6c.5.5 1 .8 1.6 1.1s1.3.4 2 .4 1.3-.1 2-.4c.6-.3 1.2-.6 1.6-1.1s.8-1 1-1.6c.3-.6.4-1.2.4-1.9s-.2-1.3-.4-1.9m-1.6 3.7c-.3.6-.7 1-1.2 1.3-.6.3-1.2.5-1.8.5-.7 0-1.2-.1-1.8-.5-.5-.3-.9-.8-1.2-1.3a3.83 3.83 0 0 1 0-3.8c.3-.6.7-1 1.2-1.3a3.45 3.45 0 0 1 3.6 0c.5.3.9.8 1.2 1.3a3.83 3.83 0 0 1 0 3.8M665.5 73.8c-.2-.6-.5-1.1-1-1.6s-1-.9-1.6-1.1c-.6-.3-1.3-.4-2-.4s-1.4.1-2 .4c-.6.3-1.2.6-1.6 1.1s-.8 1-1 1.6c-.3.6-.4 1.2-.4 1.9s.2 1.3.4 1.9.6 1.1 1 1.6c.5.5 1 .8 1.6 1.1s1.3.4 2 .4 1.4-.1 2-.4 1.2-.6 1.6-1.1.8-1 1-1.6c.3-.6.4-1.2.4-1.9s-.2-1.3-.4-1.9m-1.6 3.7c-.3.6-.7 1-1.2 1.3-.6.3-1.2.5-1.8.5s-1.2-.1-1.8-.5c-.5-.3-.9-.8-1.2-1.3a3.83 3.83 0 0 1 0-3.8c.3-.6.7-1 1.2-1.3a3.45 3.45 0 0 1 3.6 0c.5.3.9.8 1.2 1.3a3.83 3.83 0 0 1 0 3.8M671.8 76.6c.1 0 .2 0 .3-.1.4-.1.7-.3 1-.6.3-.2.6-.6.7-.9s.2-.7.2-1.1c0-.6-.1-1.1-.4-1.5-.3-.4-.6-.8-1.1-1-.5-.3-1-.4-1.6-.4h-3.3v9.5h1.4v-3.8h1.2l2.6 3.8h1.7v-.1zm-2.8-4.3h1.9c.4 0 .7.1.9.2.2.2.4.4.5.6.1.2.2.4.2.7s0 .6-.2.8c-.2.3-.4.5-.6.6-.2.1-.5.2-.8.2H669z"/><path d="M572.5 142.1c-.6 0-1.1-.1-1.7-.3-.6-.2-1-.6-1.5-1-.4-.5-.7-1.1-.9-1.8l1.7-.7c.2.6.4 1.1.8 1.5.4.4.9.6 1.6.6.7 0 1.2-.2 1.6-.6.4-.4.7-1 .7-1.6 0-.7-.2-1.2-.6-1.6-.4-.4-1-.7-1.6-.7-.4 0-.8.1-1.1.2-.3.2-.6.4-.8.7l-1.8-.8.7-6h6.4v1.7h-4.9l-.4 3.2h.1c.3-.2.6-.4.9-.5.4-.1.8-.2 1.3-.2a3.76 3.76 0 0 1 3.3 1.9c.4.6.5 1.3.5 2 0 .8-.2 1.5-.5 2.1-.4.6-.8 1.1-1.5 1.4s-1.5.5-2.3.5M587.8 133.4c-.2-.8-.6-1.4-1-2-.4-.5-.9-1-1.5-1.3a4.23 4.23 0 0 0-4 0c-.6.3-1.1.7-1.5 1.3s-.8 1.2-1 2a10.07 10.07 0 0 0 0 4.9c.2.8.6 1.4 1 2 .4.5.9 1 1.5 1.3a4.23 4.23 0 0 0 4 0c.6-.3 1.1-.7 1.5-1.3.5-.6.8-1.2 1-2a10.07 10.07 0 0 0 0-4.9m-1.9 4.7c-.2.7-.6 1.2-1 1.6-.5.4-1 .6-1.6.6s-1.1-.2-1.6-.6c-.4-.4-.8-.9-1-1.6-.3-.6-.4-1.4-.4-2.2 0-.9.2-1.6.4-2.3.2-.7.6-1.2 1-1.6s1-.6 1.6-.6 1.2.2 1.6.6.8.9 1 1.6c.3.7.4 1.5.4 2.3 0 .8-.2 1.5-.4 2.2M599.2 133.4c-.2-.8-.6-1.4-1-2-.4-.5-.9-1-1.5-1.3a4.23 4.23 0 0 0-4 0c-.6.3-1.1.7-1.5 1.3s-.8 1.2-1 2a10.07 10.07 0 0 0 0 4.9c.2.8.6 1.4 1 2 .4.5.9 1 1.5 1.3.6.3 1.3.5 2 .5.8 0 1.5-.2 2-.5.6-.3 1.1-.7 1.5-1.3.5-.6.8-1.2 1-2a10.07 10.07 0 0 0 0-4.9m-1.8 4.7c-.2.7-.6 1.2-1 1.6-.5.4-1 .6-1.6.6-.7 0-1.2-.2-1.6-.6-.4-.4-.8-.9-1-1.6-.3-.6-.4-1.4-.4-2.2 0-.9.2-1.6.4-2.3.2-.7.6-1.2 1-1.6s1-.6 1.6-.6 1.2.2 1.6.6.8.9 1 1.6c.3.7.4 1.5.4 2.3 0 .8-.2 1.5-.4 2.2M605.6 141.8V133h1.8v1.2h.1c.2-.3.4-.5.7-.8s.6-.4.9-.5c.4-.1.7-.2 1.1-.2.7 0 1.2.2 1.7.5s.8.7 1 1.2c.3-.5.7-.8 1.2-1.2.5-.3 1.1-.5 1.8-.5 1 0 1.8.3 2.3 1 .5.6.8 1.5.8 2.5v5.7h-1.9v-5.4c0-.7-.2-1.2-.5-1.5-.3-.3-.7-.5-1.3-.5-.4 0-.8.1-1.1.4-.3.2-.6.6-.8 1s-.3.9-.3 1.3v4.7h-1.9v-5.4c0-.7-.2-1.2-.5-1.5-.3-.3-.8-.5-1.3-.5-.4 0-.8.1-1.1.4-.3.2-.6.6-.7 1s-.3.9-.3 1.3v4.7zM624.2 142.1c-.7 0-1.3-.1-1.8-.3-.5-.2-.9-.5-1.3-.9-.3-.4-.6-.8-.7-1.2l1.7-.7c.2.5.5.8.9 1.1.4.2.8.4 1.3.4s.9-.1 1.2-.2c.3-.2.5-.4.5-.8 0-.2-.1-.5-.2-.6-.1-.1-.4-.3-.6-.4l-.9-.3-1.1-.2c-.4-.1-.8-.3-1.2-.5s-.7-.5-.9-.9c-.2-.4-.3-.8-.3-1.2 0-.5.2-1 .5-1.4s.7-.7 1.2-.9c.5-.2 1.1-.3 1.7-.3.6 0 1.1.1 1.5.2.5.1.9.3 1.2.6s.6.6.8 1l-1.6.7c-.2-.4-.5-.7-.8-.8-.3-.2-.7-.2-1.1-.2-.4 0-.8.1-1.1.3s-.4.4-.4.7c0 .3.1.5.4.7.3.2.6.3 1 .4l1.3.3c.9.2 1.5.6 2 1 .4.4.7 1 .7 1.6s-.2 1.1-.5 1.5-.8.7-1.3 1c-.8.2-1.5.3-2.1.3M444 141.8V140l.4-.4.9-.9c.4-.4.7-.8 1.1-1.2l1.1-1.1.8-.8c.3-.3.6-.6.8-.9.2-.3.3-.5.4-.8.1-.2.1-.5.1-.8 0-.3-.1-.6-.2-.8-.1-.3-.4-.5-.7-.6-.3-.2-.6-.2-1.1-.2-.4 0-.7.1-1 .2-.3.2-.5.4-.7.6-.2.2-.3.5-.3.7l-1.7-.7c.1-.3.2-.6.4-.9.2-.3.4-.6.8-.9.3-.3.7-.5 1.1-.7.4-.2.9-.3 1.5-.3.8 0 1.4.2 2 .5a3.37 3.37 0 0 1 1.8 2.9c0 .5-.1 1-.3 1.5-.2.5-.4.9-.7 1.3-.3.4-.6.7-.9 1-.2.1-.4.3-.6.6-.2.2-.5.5-.7.8l-.8.8-.7.7-.4.4h5.2v1.7H444zM462.7 133.4c-.2-.8-.6-1.4-1-2-.4-.5-.9-1-1.5-1.3a4.23 4.23 0 0 0-4 0c-.6.3-1.1.7-1.5 1.3s-.8 1.2-1 2a10.07 10.07 0 0 0 0 4.9c.2.8.6 1.4 1 2 .4.5.9 1 1.5 1.3.6.3 1.3.5 2 .5.8 0 1.5-.2 2-.5.6-.3 1.1-.7 1.5-1.3.5-.6.8-1.2 1-2a10.07 10.07 0 0 0 0-4.9m-1.9 4.7c-.2.7-.6 1.2-1 1.6-.5.4-1 .6-1.6.6s-1.1-.2-1.6-.6c-.4-.4-.8-.9-1-1.6-.3-.6-.4-1.4-.4-2.2 0-.9.2-1.6.4-2.3.2-.7.6-1.2 1-1.6s1-.6 1.6-.6 1.2.2 1.6.6.8.9 1 1.6c.3.7.4 1.5.4 2.3 0 .8-.2 1.5-.4 2.2M474.2 133.4c-.2-.8-.6-1.4-1-2-.4-.5-.9-1-1.5-1.3a4.23 4.23 0 0 0-4 0c-.6.3-1.1.7-1.5 1.3s-.8 1.2-1 2a10.07 10.07 0 0 0 0 4.9c.2.8.6 1.4 1 2 .4.5.9 1 1.5 1.3.6.3 1.3.5 2 .5s1.4-.2 2-.5c.6-.3 1.1-.7 1.5-1.3.5-.6.8-1.2 1-2a10.07 10.07 0 0 0 0-4.9m-1.9 4.7c-.2.7-.6 1.2-1 1.6-.5.4-1 .6-1.6.6-.7 0-1.2-.2-1.6-.6s-.8-.9-1-1.6c-.3-.6-.4-1.4-.4-2.2 0-.9.2-1.6.4-2.3.2-.7.6-1.2 1-1.6s1-.6 1.6-.6 1.2.2 1.6.6.8.9 1 1.6c.3.7.4 1.5.4 2.3 0 .8-.2 1.5-.4 2.2M480.5 141.8V133h1.8v1.2h.1c.2-.3.4-.5.7-.8s.6-.4.9-.5c.4-.1.7-.2 1.1-.2.7 0 1.2.2 1.7.5s.8.7 1 1.2c.3-.5.7-.8 1.2-1.2.5-.3 1.1-.5 1.8-.5 1 0 1.8.3 2.3 1 .5.6.8 1.5.8 2.5v5.7H492v-5.4c0-.7-.2-1.2-.5-1.5-.3-.3-.7-.5-1.3-.5-.4 0-.8.1-1.1.4-.3.2-.6.6-.8 1s-.3.9-.3 1.3v4.7h-1.9v-5.4c0-.7-.2-1.2-.5-1.5-.3-.3-.8-.5-1.3-.5-.4 0-.8.1-1.1.4-.3.2-.6.6-.7 1s-.3.9-.3 1.3v4.7zM499.1 142.1c-.7 0-1.3-.1-1.8-.3-.5-.2-.9-.5-1.3-.9-.3-.4-.6-.8-.7-1.2l1.7-.7c.2.5.5.8.9 1.1.4.2.8.4 1.3.4s.9-.1 1.2-.2c.3-.2.5-.4.5-.8 0-.2-.1-.5-.2-.6-.2-.2-.4-.3-.6-.4l-.9-.3-1.1-.2c-.4-.1-.8-.3-1.2-.5-.4-.2-.7-.5-.9-.9-.2-.4-.3-.8-.3-1.2 0-.5.2-1 .5-1.4s.7-.7 1.2-.9c.5-.2 1.1-.3 1.7-.3s1.1.1 1.5.2c.5.1.9.3 1.2.6.3.3.6.6.8 1l-1.6.7c-.2-.4-.5-.7-.8-.8-.3-.2-.7-.2-1.1-.2s-.8.1-1.1.3c-.3.2-.4.4-.4.7 0 .3.1.5.4.7s.6.3 1 .4l1.3.3c.9.2 1.5.6 2 1 .4.4.7 1 .7 1.6s-.2 1.1-.5 1.5-.8.7-1.3 1c-.8.2-1.4.3-2.1.3" class="st4"/><path d="M54.8 138.2h1.7v14.3h-1.7zM59.4 152.5v-10.2H61v1.5h.1c.3-.5.7-.9 1.3-1.3s1.3-.5 2-.5c1.2 0 2.2.4 2.8 1.1.6.7 1 1.7 1 2.9v6.5h-1.7v-6.3c0-1-.2-1.7-.7-2.1-.5-.4-1.1-.6-1.8-.6-.6 0-1.1.2-1.5.5-.4.3-.8.7-1 1.2s-.4 1-.4 1.6v5.7zM75.4 143.8v-1.5h-2.5v-2.9h-1.7v2.9h-1.8v1.5h1.8v6c0 .9.2 1.6.7 2.1.6.6 1.2.8 2.1.8.3 0 .6 0 .8-.1.2-.1.4-.1.6-.2v-1.7c-.1 0-.3.1-.5.2s-.4.1-.6.1c-.5 0-.9-.1-1.1-.4-.2-.3-.3-.7-.3-1.2v-5.6zM86.3 147.1c0-1-.2-1.9-.6-2.7-.4-.7-1-1.4-1.7-1.8-.7-.5-1.6-.7-2.6-.7s-1.9.3-2.6.8a5.51 5.51 0 0 0-2.3 4.7c0 1.1.2 2 .6 2.8.4.8 1 1.4 1.8 1.9.7.5 1.6.7 2.6.7 1.1 0 2-.3 3-.8.7-.5 1.3-1.1 1.7-1.9l-1.4-.7c-.3.5-.7.9-1.2 1.3-.4.3-1 .5-1.8.5a3.29 3.29 0 0 1-3-1.7c-.3-.5-.4-1.1-.5-1.9h8zm-7.9-.9.3-.9c.3-.6.6-1.1 1.1-1.4s1-.5 1.7-.5c.6 0 1 .1 1.4.3.3.2.7.4.9.7.2.3.4.6.5.9.1.3.2.6.2.9zM88.2 152.5v-10.2h1.6v1.6h.1c.1-.4.4-.7.7-1 .3-.3.7-.5 1.1-.7.4-.2.8-.2 1.2-.2h.7c.2 0 .3.1.5.2v1.8c-.2-.1-.5-.2-.7-.2-.2-.1-.5-.1-.7-.1-.5 0-1 .1-1.4.4-.4.3-.7.7-1 1.1-.2.5-.4 1-.4 1.5v5.7zM102.4 143.1c-.7-.7-1.8-1.1-3.2-1.1-.5 0-1.1 0-1.6.2s-1 .4-1.4.7c-.4.3-.7.6-1 1l1.3 1c.2-.4.6-.8 1.1-1 .5-.3 1-.4 1.6-.4.8 0 1.5.2 2 .7.5.4.8 1 .8 1.8v.6c-.2-.1-.4-.2-.7-.3s-.6-.2-1-.3c-.3-.1-.8-.1-1.2-.1-.8 0-1.5.1-2.2.4-.6.3-1.1.7-1.5 1.2s-.6 1.1-.6 1.9c0 .7.2 1.3.5 1.8s.7.9 1.3 1.2c.6.3 1.2.4 2 .4.5 0 1-.1 1.5-.2.4-.2.8-.4 1.1-.7.3-.2.5-.5.7-.8h.1v1.5h1.6v-6.5c0-1.3-.4-2.3-1.2-3m-.9 6.6c-.3.5-.7.9-1.2 1.2-.5.3-1 .4-1.6.4s-1.2-.2-1.6-.4c-.4-.4-.6-.8-.6-1.4 0-.6.3-1.1.7-1.5.4-.4 1.1-.6 2.1-.6.5 0 1 .1 1.5.2s.9.3 1.2.5c0 .6-.2 1.1-.5 1.6M110.4 152.8a4.95 4.95 0 0 1-4.5-2.6c-.4-.8-.7-1.7-.7-2.8 0-1 .2-2 .7-2.8a4.95 4.95 0 0 1 4.5-2.6 4.47 4.47 0 0 1 4.4 2.8l-1.5.6c-.2-.6-.6-1.1-1.1-1.4-.5-.3-1.1-.5-1.8-.5-.6 0-1.2.2-1.7.5s-.9.8-1.2 1.4-.5 1.3-.5 2c0 .8.2 1.4.5 2s.7 1 1.2 1.4c.5.3 1.1.5 1.7.5.7 0 1.3-.2 1.9-.5.5-.3.9-.8 1.2-1.4l1.5.6c-.3.8-.9 1.5-1.6 2-.9.5-1.8.8-3 .8M121.9 143.8v-1.5h-2.5v-2.9h-1.7v2.9h-1.8v1.5h1.8v6c0 .9.3 1.6.7 2.1.6.6 1.2.8 2.1.8.3 0 .6 0 .8-.1.2-.1.4-.1.6-.2v-1.7c-.1 0-.3.1-.5.2s-.4.1-.6.1c-.5 0-.9-.1-1.1-.4-.2-.3-.3-.7-.3-1.2v-5.6zM124.2 142.3h1.7v10.2h-1.7zM125.1 140.4c-.3 0-.6-.1-.9-.4-.2-.2-.4-.5-.4-.9 0-.3.1-.6.4-.9.2-.2.5-.4.9-.4.3 0 .6.1.9.4.2.2.4.5.4.9 0 .3-.1.6-.4.9-.3.3-.6.4-.9.4M137.8 144.6c-.5-.9-1.1-1.5-1.9-2-.8-.5-1.7-.7-2.7-.7s-1.9.2-2.7.7a5.78 5.78 0 0 0-2.5 4.8c0 1.1.3 2 .7 2.8a4.95 4.95 0 0 0 4.5 2.6c1 0 1.9-.3 2.7-.8.8-.4 1.5-1.1 1.9-1.9.5-.9.7-1.8.7-2.8s-.3-1.9-.7-2.7m-1.6 4.8c-.3.5-.8 1-1.3 1.3s-1.1.5-1.7.5c-.6 0-1.2-.1-1.7-.5-.5-.3-1-.7-1.3-1.3a4.65 4.65 0 0 1 0-4.2c.3-.6.8-1 1.3-1.3s1.1-.5 1.7-.5c.6 0 1.2.2 1.7.5s1 .7 1.3 1.3a4.65 4.65 0 0 1 0 4.2M140.2 152.5v-10.2h1.6v1.5h.1c.3-.5.7-.9 1.3-1.3s1.3-.5 2-.5c1.2 0 2.2.4 2.8 1.1.6.7 1 1.7 1 2.9v6.5h-1.7v-6.3c0-1-.2-1.7-.7-2.1-.5-.4-1.1-.6-1.8-.6-.6 0-1.1.2-1.5.5-.4.3-.8.7-1 1.2-.2.5-.4 1-.4 1.6v5.7zM161.3 143.8v-1.5h-2.5v-2.9h-1.7v2.9h-1.8v1.5h1.8v6c0 .9.3 1.6.7 2.1.6.6 1.2.8 2.1.8.3 0 .6 0 .8-.1.2-.1.4-.1.6-.2v-1.7c-.1 0-.3.1-.5.2s-.4.1-.6.1c-.5 0-.9-.1-1.1-.4-.2-.3-.3-.7-.3-1.2v-5.6zM172.2 144.6c-.5-.9-1.1-1.5-1.9-2s-1.7-.7-2.7-.7-1.9.2-2.7.7a5.78 5.78 0 0 0-2.5 4.8c0 1.1.3 2 .7 2.8a4.95 4.95 0 0 0 4.5 2.6c1 0 1.9-.3 2.7-.8.8-.4 1.5-1.1 1.9-1.9.5-.9.7-1.8.7-2.8s-.3-1.9-.7-2.7m-1.6 4.8c-.3.5-.8 1-1.3 1.3s-1.1.5-1.7.5-1.2-.1-1.7-.5c-.5-.3-1-.7-1.3-1.3a4.65 4.65 0 0 1 0-4.2c.3-.6.8-1 1.3-1.3s1.1-.5 1.7-.5 1.2.2 1.7.5 1 .7 1.3 1.3a4.65 4.65 0 0 1 0 4.2M179.8 152.5v-14.3h2.1l7.2 11.4h.1l-.1-2.8v-8.6h1.7v14.3H189l-7.5-11.9h-.1l.1 2.8v9.2h-1.7zM202.8 147.1c0-1-.2-1.9-.6-2.7-.4-.7-1-1.4-1.7-1.8-.7-.5-1.6-.7-2.6-.7s-1.9.3-2.6.8a5.51 5.51 0 0 0-2.3 4.7c0 1.1.2 2 .6 2.8.4.8 1 1.4 1.8 1.9.7.5 1.6.7 2.6.7 1.1 0 2-.3 3-.8.7-.5 1.3-1.1 1.7-1.9l-1.4-.7c-.3.5-.7.9-1.2 1.3-.4.3-1 .5-1.8.5a3.29 3.29 0 0 1-3-1.7c-.3-.5-.4-1.1-.5-1.9h8zm-7.9-.9.3-.9c.3-.6.6-1.1 1.1-1.4s1-.5 1.7-.5c.6 0 1 .1 1.4.3.3.2.7.4.9.7.2.3.4.6.5.9.1.3.2.6.2.9zM212.8 152.5l-3.7-5.2 3.6-5h-2l-2.5 3.8-2.7-3.8h-1.9l3.6 4.9-3.7 5.3h2l2.7-4 2.6 4zM219.5 143.8v-1.5H217v-2.9h-1.7v2.9h-1.8v1.5h1.8v6c0 .9.3 1.6.7 2.1.6.6 1.2.8 2.1.8.3 0 .6 0 .8-.1.2-.1.4-.1.6-.2v-1.7c-.1 0-.3.1-.5.2s-.4.1-.6.1c-.5 0-.9-.1-1.1-.4-.2-.3-.3-.7-.3-1.2v-5.6zM235.1 140.2c-.4-.7-.9-1.1-1.6-1.5-.7-.3-1.4-.5-2.2-.5h-4.8v14.3h1.7v-5.9h3.1a4.2 4.2 0 0 0 3.8-2c.4-.6.6-1.4.6-2.2 0-.8-.2-1.6-.6-2.2m-1.4 3.4c-.2.4-.5.7-.9 1-.4.3-.8.4-1.4.4h-3.2v-5.2h3.2c.5 0 1 .1 1.4.4.4.3.7.6.9 1 .2.4.3.8.3 1.2s-.1.8-.3 1.2M244.3 143.1c-.7-.7-1.8-1.1-3.2-1.1-.5 0-1.1 0-1.6.2s-1 .4-1.4.7c-.4.3-.7.6-1 1l1.3 1c.2-.4.6-.8 1.1-1 .5-.3 1-.4 1.6-.4.8 0 1.5.2 2 .7.5.4.8 1 .8 1.8v.6c-.2-.1-.4-.2-.7-.3s-.6-.2-1-.3c-.3-.1-.8-.1-1.2-.1-.8 0-1.5.1-2.2.4-.6.3-1.1.7-1.5 1.2s-.6 1.1-.6 1.9c0 .7.2 1.3.5 1.8s.7.9 1.3 1.2c.6.3 1.2.4 2 .4.6 0 1-.1 1.5-.2.4-.2.8-.4 1.1-.7.3-.2.5-.5.7-.8h.1v1.5h1.6v-6.5c0-1.3-.4-2.3-1.2-3m-.8 6.6c-.3.5-.7.9-1.2 1.2s-1 .4-1.6.4c-.6 0-1.2-.2-1.6-.4-.4-.4-.6-.8-.6-1.4 0-.6.3-1.1.7-1.5.4-.4 1.1-.6 2.1-.6.5 0 1 .1 1.5.2s.9.3 1.2.5c0 .6-.2 1.1-.5 1.6M248.1 142.3h1.7v10.2h-1.7zM248.9 140.4c-.3 0-.6-.1-.9-.4-.2-.2-.4-.5-.4-.9 0-.3.1-.6.4-.9.2-.2.5-.4.9-.4.3 0 .6.1.9.4.2.2.4.5.4.9 0 .3-.1.6-.4.9-.3.3-.5.4-.9.4M252.4 152.5v-10.2h1.6v1.5h.1c.3-.5.7-.9 1.3-1.3.6-.4 1.3-.5 2-.5 1.2 0 2.2.4 2.8 1.1.6.7 1 1.7 1 2.9v6.5h-1.7v-6.3c0-1-.2-1.7-.7-2.1-.5-.4-1.1-.6-1.8-.6-.6 0-1.1.2-1.5.5s-.8.7-1 1.2-.4 1-.4 1.6v5.7zM267.9 150.9c-.2.1-.4.1-.6.1-.5 0-.9-.1-1.1-.4-.2-.3-.3-.7-.3-1.2v-5.6h2.5v-1.5h-2.5v-2.9h-1.7v2.9h-1.8v1.5h1.8v6c0 .9.3 1.6.7 2.1.6.6 1.2.8 2.1.8.3 0 .6 0 .8-.1.2-.1.4-.1.6-.2v-1.7c-.1 0-.3.1-.5.2" class="st5"/><path d="M472.9 94.4c-1.8 0-3.3 1.5-3.3 3.3 0 1.5 1 2.7 2.3 3.1v21.4h2v-21.4c1.3-.4 2.3-1.7 2.3-3.1 0-1.8-1.5-3.3-3.3-3.3M601.3 97.8c0-1.8-1.5-3.3-3.3-3.3s-3.3 1.5-3.3 3.3c0 1.5 1 2.7 2.3 3.1v21.2h2v-21.2c1.3-.4 2.3-1.6 2.3-3.1" class="st4"/></svg>